<mxfile host="app.diagrams.net" modified="2022-04-06T08:42:18.697Z" agent="5.0 (Windows NT 10.0; Win64; x64) AppleWebKit/537.36 (KHTML, like Gecko) Chrome/99.0.4844.51 Safari/537.36" etag="XK1dBAeZkDL-iR4Sbyyh" version="17.4.0" type="github">
  <diagram id="RKgJ4VKDAtB4tIxPlxn0" name="第 1 页">
    <mxGraphModel dx="1422" dy="706" grid="1" gridSize="10" guides="1" tooltips="1" connect="1" arrows="1" fold="1" page="1" pageScale="1" pageWidth="827" pageHeight="1169" math="0" shadow="0">
      <root>
        <mxCell id="0" />
        <mxCell id="1" parent="0" />
        <mxCell id="6EzRI4fCPDjEW_pRFf7N-81" value="" style="rounded=0;whiteSpace=wrap;html=1;fontFamily=Helvetica;fontSize=12;fontColor=default;strokeColor=default;fillColor=default;strokeWidth=2;dashed=1;" vertex="1" parent="1">
          <mxGeometry x="525.5" y="1495" width="153" height="199" as="geometry" />
        </mxCell>
        <mxCell id="6EzRI4fCPDjEW_pRFf7N-80" value="" style="rounded=0;whiteSpace=wrap;html=1;fontFamily=Helvetica;fontSize=12;fontColor=default;strokeColor=default;fillColor=default;strokeWidth=2;dashed=1;" vertex="1" parent="1">
          <mxGeometry x="345.5" y="1495" width="153" height="199" as="geometry" />
        </mxCell>
        <mxCell id="6EzRI4fCPDjEW_pRFf7N-79" value="" style="rounded=0;whiteSpace=wrap;html=1;fontFamily=Helvetica;fontSize=12;fontColor=default;strokeColor=default;fillColor=default;strokeWidth=2;dashed=1;" vertex="1" parent="1">
          <mxGeometry x="160" y="1495" width="153" height="199" as="geometry" />
        </mxCell>
        <mxCell id="B3wVfU0sj-FQTkpLoz9Y-6" style="edgeStyle=orthogonalEdgeStyle;rounded=0;orthogonalLoop=1;jettySize=auto;html=1;exitX=0;exitY=0.5;exitDx=0;exitDy=0;entryX=1;entryY=0.5;entryDx=0;entryDy=0;entryPerimeter=0;" parent="1" source="B3wVfU0sj-FQTkpLoz9Y-1" target="6EzRI4fCPDjEW_pRFf7N-7" edge="1">
          <mxGeometry relative="1" as="geometry">
            <mxPoint x="360" y="140" as="targetPoint" />
          </mxGeometry>
        </mxCell>
        <mxCell id="B3wVfU0sj-FQTkpLoz9Y-1" value="canal" style="rounded=1;whiteSpace=wrap;html=1;fillColor=#f5f5f5;fontColor=#333333;strokeColor=#666666;" parent="1" vertex="1">
          <mxGeometry x="460" y="110" width="120" height="60" as="geometry" />
        </mxCell>
        <mxCell id="B3wVfU0sj-FQTkpLoz9Y-4" style="edgeStyle=orthogonalEdgeStyle;rounded=0;orthogonalLoop=1;jettySize=auto;html=1;exitX=0.5;exitY=1;exitDx=0;exitDy=0;exitPerimeter=0;entryX=1;entryY=0.5;entryDx=0;entryDy=0;" parent="1" source="B3wVfU0sj-FQTkpLoz9Y-2" target="B3wVfU0sj-FQTkpLoz9Y-1" edge="1">
          <mxGeometry relative="1" as="geometry" />
        </mxCell>
        <mxCell id="B3wVfU0sj-FQTkpLoz9Y-2" value="mysql" style="shape=cylinder3;whiteSpace=wrap;html=1;boundedLbl=1;backgroundOutline=1;size=15;fillColor=#dae8fc;strokeColor=#6c8ebf;" parent="1" vertex="1">
          <mxGeometry x="650" y="20" width="60" height="80" as="geometry" />
        </mxCell>
        <mxCell id="6EzRI4fCPDjEW_pRFf7N-5" style="edgeStyle=orthogonalEdgeStyle;rounded=0;orthogonalLoop=1;jettySize=auto;html=1;entryX=0.5;entryY=0;entryDx=0;entryDy=0;fontFamily=Helvetica;fontSize=12;fontColor=default;exitX=0;exitY=0.5;exitDx=0;exitDy=0;exitPerimeter=0;" edge="1" parent="1" source="6EzRI4fCPDjEW_pRFf7N-7" target="6EzRI4fCPDjEW_pRFf7N-3">
          <mxGeometry relative="1" as="geometry">
            <mxPoint x="240" y="140" as="sourcePoint" />
          </mxGeometry>
        </mxCell>
        <mxCell id="6EzRI4fCPDjEW_pRFf7N-9" style="edgeStyle=orthogonalEdgeStyle;rounded=0;orthogonalLoop=1;jettySize=auto;html=1;exitX=0.5;exitY=1;exitDx=0;exitDy=0;fontFamily=Helvetica;fontSize=12;fontColor=default;" edge="1" parent="1" source="6EzRI4fCPDjEW_pRFf7N-3" target="6EzRI4fCPDjEW_pRFf7N-8">
          <mxGeometry relative="1" as="geometry" />
        </mxCell>
        <mxCell id="6EzRI4fCPDjEW_pRFf7N-3" value="zhenai-crm-{domain}-provider" style="rounded=0;whiteSpace=wrap;html=1;fontFamily=Helvetica;fontSize=12;strokeColor=#82b366;fillColor=#d5e8d4;" vertex="1" parent="1">
          <mxGeometry x="90" y="210" width="170" height="60" as="geometry" />
        </mxCell>
        <mxCell id="6EzRI4fCPDjEW_pRFf7N-7" value="&lt;span&gt;RocketMQ&lt;/span&gt;" style="strokeWidth=2;html=1;shape=mxgraph.flowchart.direct_data;whiteSpace=wrap;rounded=1;fontFamily=Helvetica;fontSize=12;fillColor=#ffe6cc;strokeColor=#d79b00;" vertex="1" parent="1">
          <mxGeometry x="250" y="110" width="100" height="60" as="geometry" />
        </mxCell>
        <mxCell id="6EzRI4fCPDjEW_pRFf7N-25" style="edgeStyle=orthogonalEdgeStyle;rounded=0;orthogonalLoop=1;jettySize=auto;html=1;exitX=0.5;exitY=1;exitDx=0;exitDy=0;entryX=0.5;entryY=0;entryDx=0;entryDy=0;fontFamily=Helvetica;fontSize=12;fontColor=default;" edge="1" parent="1" source="6EzRI4fCPDjEW_pRFf7N-8" target="6EzRI4fCPDjEW_pRFf7N-15">
          <mxGeometry relative="1" as="geometry" />
        </mxCell>
        <mxCell id="6EzRI4fCPDjEW_pRFf7N-8" value="" style="ellipse;shape=doubleEllipse;whiteSpace=wrap;html=1;aspect=fixed;rounded=1;fontFamily=Helvetica;fontSize=12;fontColor=default;strokeColor=default;fillColor=default;" vertex="1" parent="1">
          <mxGeometry x="160" y="360" width="30" height="30" as="geometry" />
        </mxCell>
        <mxCell id="6EzRI4fCPDjEW_pRFf7N-10" value="" style="shape=curlyBracket;whiteSpace=wrap;html=1;rounded=1;fontFamily=Helvetica;fontSize=12;fontColor=default;strokeColor=default;fillColor=default;" vertex="1" parent="1">
          <mxGeometry x="200" y="315" width="20" height="120" as="geometry" />
        </mxCell>
        <mxCell id="6EzRI4fCPDjEW_pRFf7N-15" value="Single processor" style="shape=process;whiteSpace=wrap;html=1;backgroundOutline=1;rounded=1;fontFamily=Helvetica;fontSize=12;fontColor=default;strokeColor=default;fillColor=default;" vertex="1" parent="1">
          <mxGeometry x="115" y="500" width="120" height="60" as="geometry" />
        </mxCell>
        <mxCell id="6EzRI4fCPDjEW_pRFf7N-19" value="MemberBaseInfo Event" style="text;html=1;align=center;verticalAlign=middle;resizable=0;points=[];autosize=1;strokeColor=none;fillColor=none;fontSize=12;fontFamily=Helvetica;fontColor=default;" vertex="1" parent="1">
          <mxGeometry x="220" y="330" width="140" height="20" as="geometry" />
        </mxCell>
        <mxCell id="6EzRI4fCPDjEW_pRFf7N-20" value="MemberObjectInfo Event" style="text;html=1;align=center;verticalAlign=middle;resizable=0;points=[];autosize=1;strokeColor=none;fillColor=none;fontSize=12;fontFamily=Helvetica;fontColor=default;" vertex="1" parent="1">
          <mxGeometry x="220" y="360" width="150" height="20" as="geometry" />
        </mxCell>
        <mxCell id="6EzRI4fCPDjEW_pRFf7N-21" value="..." style="text;html=1;align=center;verticalAlign=middle;resizable=0;points=[];autosize=1;strokeColor=none;fillColor=none;fontSize=12;fontFamily=Helvetica;fontColor=default;" vertex="1" parent="1">
          <mxGeometry x="275" y="390" width="30" height="20" as="geometry" />
        </mxCell>
        <mxCell id="6EzRI4fCPDjEW_pRFf7N-23" value="MemberPhoto Event" style="text;html=1;align=center;verticalAlign=middle;resizable=0;points=[];autosize=1;strokeColor=none;fillColor=none;fontSize=12;fontFamily=Helvetica;fontColor=default;" vertex="1" parent="1">
          <mxGeometry x="230" y="410" width="120" height="20" as="geometry" />
        </mxCell>
        <mxCell id="6EzRI4fCPDjEW_pRFf7N-24" value="&lt;b&gt;Single Consumer&lt;/b&gt;" style="text;html=1;align=center;verticalAlign=middle;resizable=0;points=[];autosize=1;strokeColor=none;fillColor=none;fontSize=12;fontFamily=Helvetica;fontColor=default;" vertex="1" parent="1">
          <mxGeometry x="40" y="365" width="110" height="20" as="geometry" />
        </mxCell>
        <mxCell id="6EzRI4fCPDjEW_pRFf7N-27" style="edgeStyle=orthogonalEdgeStyle;rounded=0;orthogonalLoop=1;jettySize=auto;html=1;exitX=0;exitY=0.5;exitDx=0;exitDy=0;entryX=1;entryY=0.5;entryDx=0;entryDy=0;entryPerimeter=0;" edge="1" parent="1" source="6EzRI4fCPDjEW_pRFf7N-28" target="6EzRI4fCPDjEW_pRFf7N-34">
          <mxGeometry relative="1" as="geometry">
            <mxPoint x="410" y="953" as="targetPoint" />
          </mxGeometry>
        </mxCell>
        <mxCell id="6EzRI4fCPDjEW_pRFf7N-28" value="canal" style="rounded=1;whiteSpace=wrap;html=1;fillColor=#f5f5f5;fontColor=#333333;strokeColor=#666666;" vertex="1" parent="1">
          <mxGeometry x="510" y="923" width="120" height="60" as="geometry" />
        </mxCell>
        <mxCell id="6EzRI4fCPDjEW_pRFf7N-29" style="edgeStyle=orthogonalEdgeStyle;rounded=0;orthogonalLoop=1;jettySize=auto;html=1;exitX=0.5;exitY=1;exitDx=0;exitDy=0;exitPerimeter=0;entryX=1;entryY=0.5;entryDx=0;entryDy=0;" edge="1" parent="1" source="6EzRI4fCPDjEW_pRFf7N-30" target="6EzRI4fCPDjEW_pRFf7N-28">
          <mxGeometry relative="1" as="geometry" />
        </mxCell>
        <mxCell id="6EzRI4fCPDjEW_pRFf7N-30" value="mysql" style="shape=cylinder3;whiteSpace=wrap;html=1;boundedLbl=1;backgroundOutline=1;size=15;fillColor=#dae8fc;strokeColor=#6c8ebf;" vertex="1" parent="1">
          <mxGeometry x="700" y="833" width="60" height="80" as="geometry" />
        </mxCell>
        <mxCell id="6EzRI4fCPDjEW_pRFf7N-31" style="edgeStyle=orthogonalEdgeStyle;rounded=0;orthogonalLoop=1;jettySize=auto;html=1;entryX=0.5;entryY=0;entryDx=0;entryDy=0;fontFamily=Helvetica;fontSize=12;fontColor=default;exitX=0;exitY=0.5;exitDx=0;exitDy=0;exitPerimeter=0;" edge="1" parent="1" source="6EzRI4fCPDjEW_pRFf7N-34" target="6EzRI4fCPDjEW_pRFf7N-33">
          <mxGeometry relative="1" as="geometry">
            <mxPoint x="290" y="953" as="sourcePoint" />
          </mxGeometry>
        </mxCell>
        <mxCell id="6EzRI4fCPDjEW_pRFf7N-32" style="edgeStyle=orthogonalEdgeStyle;rounded=0;orthogonalLoop=1;jettySize=auto;html=1;exitX=0.5;exitY=1;exitDx=0;exitDy=0;fontFamily=Helvetica;fontSize=12;fontColor=default;" edge="1" parent="1" source="6EzRI4fCPDjEW_pRFf7N-33" target="6EzRI4fCPDjEW_pRFf7N-36">
          <mxGeometry relative="1" as="geometry" />
        </mxCell>
        <mxCell id="6EzRI4fCPDjEW_pRFf7N-33" value="zhenai-crm-{domain}-provider" style="rounded=0;whiteSpace=wrap;html=1;fontFamily=Helvetica;fontSize=12;strokeColor=#82b366;fillColor=#d5e8d4;" vertex="1" parent="1">
          <mxGeometry x="140" y="1023" width="170" height="60" as="geometry" />
        </mxCell>
        <mxCell id="6EzRI4fCPDjEW_pRFf7N-34" value="&lt;span&gt;RocketMQ&lt;/span&gt;" style="strokeWidth=2;html=1;shape=mxgraph.flowchart.direct_data;whiteSpace=wrap;rounded=1;fontFamily=Helvetica;fontSize=12;fillColor=#ffe6cc;strokeColor=#d79b00;" vertex="1" parent="1">
          <mxGeometry x="300" y="923" width="100" height="60" as="geometry" />
        </mxCell>
        <mxCell id="6EzRI4fCPDjEW_pRFf7N-72" style="edgeStyle=orthogonalEdgeStyle;rounded=0;orthogonalLoop=1;jettySize=auto;html=1;exitX=0.5;exitY=1;exitDx=0;exitDy=0;fontFamily=Helvetica;fontSize=12;fontColor=default;entryX=0;entryY=0.5;entryDx=0;entryDy=0;" edge="1" parent="1" source="6EzRI4fCPDjEW_pRFf7N-36" target="6EzRI4fCPDjEW_pRFf7N-71">
          <mxGeometry relative="1" as="geometry" />
        </mxCell>
        <mxCell id="6EzRI4fCPDjEW_pRFf7N-36" value="" style="ellipse;shape=doubleEllipse;whiteSpace=wrap;html=1;aspect=fixed;rounded=1;fontFamily=Helvetica;fontSize=12;fontColor=default;strokeColor=default;fillColor=default;" vertex="1" parent="1">
          <mxGeometry x="210" y="1173" width="30" height="30" as="geometry" />
        </mxCell>
        <mxCell id="6EzRI4fCPDjEW_pRFf7N-37" value="" style="shape=curlyBracket;whiteSpace=wrap;html=1;rounded=1;fontFamily=Helvetica;fontSize=12;fontColor=default;strokeColor=default;fillColor=default;" vertex="1" parent="1">
          <mxGeometry x="250" y="1128" width="20" height="120" as="geometry" />
        </mxCell>
        <mxCell id="6EzRI4fCPDjEW_pRFf7N-76" style="edgeStyle=orthogonalEdgeStyle;rounded=0;orthogonalLoop=1;jettySize=auto;html=1;exitX=0.5;exitY=1;exitDx=0;exitDy=0;entryX=0.5;entryY=0;entryDx=0;entryDy=0;fontFamily=Helvetica;fontSize=12;fontColor=default;" edge="1" parent="1" source="6EzRI4fCPDjEW_pRFf7N-38" target="6EzRI4fCPDjEW_pRFf7N-68">
          <mxGeometry relative="1" as="geometry" />
        </mxCell>
        <mxCell id="6EzRI4fCPDjEW_pRFf7N-38" value="MemberBaseInfo&lt;br&gt;processor" style="shape=process;whiteSpace=wrap;html=1;backgroundOutline=1;rounded=1;fontFamily=Helvetica;fontSize=12;strokeColor=#6c8ebf;fillColor=#dae8fc;gradientColor=#7ea6e0;" vertex="1" parent="1">
          <mxGeometry x="177" y="1511" width="120" height="60" as="geometry" />
        </mxCell>
        <mxCell id="6EzRI4fCPDjEW_pRFf7N-39" value="MemberBaseInfo Event" style="text;html=1;align=center;verticalAlign=middle;resizable=0;points=[];autosize=1;strokeColor=none;fillColor=none;fontSize=12;fontFamily=Helvetica;fontColor=default;" vertex="1" parent="1">
          <mxGeometry x="270" y="1143" width="140" height="20" as="geometry" />
        </mxCell>
        <mxCell id="6EzRI4fCPDjEW_pRFf7N-40" value="MemberObjectInfo Event" style="text;html=1;align=center;verticalAlign=middle;resizable=0;points=[];autosize=1;strokeColor=none;fillColor=none;fontSize=12;fontFamily=Helvetica;fontColor=default;" vertex="1" parent="1">
          <mxGeometry x="270" y="1173" width="150" height="20" as="geometry" />
        </mxCell>
        <mxCell id="6EzRI4fCPDjEW_pRFf7N-41" value="..." style="text;html=1;align=center;verticalAlign=middle;resizable=0;points=[];autosize=1;strokeColor=none;fillColor=none;fontSize=12;fontFamily=Helvetica;fontColor=default;" vertex="1" parent="1">
          <mxGeometry x="325" y="1203" width="30" height="20" as="geometry" />
        </mxCell>
        <mxCell id="6EzRI4fCPDjEW_pRFf7N-42" value="MemberPhoto Event" style="text;html=1;align=center;verticalAlign=middle;resizable=0;points=[];autosize=1;strokeColor=none;fillColor=none;fontSize=12;fontFamily=Helvetica;fontColor=default;" vertex="1" parent="1">
          <mxGeometry x="280" y="1223" width="120" height="20" as="geometry" />
        </mxCell>
        <mxCell id="6EzRI4fCPDjEW_pRFf7N-43" value="&lt;b&gt;Single Consumer&lt;/b&gt;" style="text;html=1;align=center;verticalAlign=middle;resizable=0;points=[];autosize=1;strokeColor=none;fillColor=none;fontSize=12;fontFamily=Helvetica;fontColor=default;" vertex="1" parent="1">
          <mxGeometry x="90" y="1178" width="110" height="20" as="geometry" />
        </mxCell>
        <mxCell id="6EzRI4fCPDjEW_pRFf7N-46" value="" style="html=1;shadow=0;dashed=0;align=center;verticalAlign=middle;shape=mxgraph.arrows2.arrow;dy=0.6;dx=40;direction=south;notch=0;rounded=1;fontFamily=Helvetica;fontSize=12;fontColor=#ffffff;strokeColor=#006EAF;fillColor=#1ba1e2;" vertex="1" parent="1">
          <mxGeometry x="360" y="650" width="70" height="100" as="geometry" />
        </mxCell>
        <mxCell id="6EzRI4fCPDjEW_pRFf7N-47" value="&lt;b&gt;1. 按照Table Event划分&lt;/b&gt;" style="text;html=1;align=center;verticalAlign=middle;resizable=0;points=[];autosize=1;strokeColor=none;fillColor=none;fontSize=12;fontFamily=Helvetica;fontColor=default;" vertex="1" parent="1">
          <mxGeometry x="25" y="780" width="140" height="20" as="geometry" />
        </mxCell>
        <mxCell id="6EzRI4fCPDjEW_pRFf7N-77" style="edgeStyle=orthogonalEdgeStyle;rounded=0;orthogonalLoop=1;jettySize=auto;html=1;exitX=0.5;exitY=1;exitDx=0;exitDy=0;fontFamily=Helvetica;fontSize=12;fontColor=default;" edge="1" parent="1" source="6EzRI4fCPDjEW_pRFf7N-66" target="6EzRI4fCPDjEW_pRFf7N-69">
          <mxGeometry relative="1" as="geometry" />
        </mxCell>
        <mxCell id="6EzRI4fCPDjEW_pRFf7N-66" value="MemberObjectInfo&lt;br&gt;processor" style="shape=process;whiteSpace=wrap;html=1;backgroundOutline=1;rounded=1;fontFamily=Helvetica;fontSize=12;strokeColor=#6c8ebf;fillColor=#dae8fc;gradientColor=#7ea6e0;" vertex="1" parent="1">
          <mxGeometry x="362" y="1511" width="120" height="60" as="geometry" />
        </mxCell>
        <mxCell id="6EzRI4fCPDjEW_pRFf7N-78" style="edgeStyle=orthogonalEdgeStyle;rounded=0;orthogonalLoop=1;jettySize=auto;html=1;exitX=0.5;exitY=1;exitDx=0;exitDy=0;fontFamily=Helvetica;fontSize=12;fontColor=default;" edge="1" parent="1" source="6EzRI4fCPDjEW_pRFf7N-67" target="6EzRI4fCPDjEW_pRFf7N-70">
          <mxGeometry relative="1" as="geometry" />
        </mxCell>
        <mxCell id="6EzRI4fCPDjEW_pRFf7N-67" value="MemberPhoto&lt;br&gt;processor" style="shape=process;whiteSpace=wrap;html=1;backgroundOutline=1;rounded=1;fontFamily=Helvetica;fontSize=12;strokeColor=#6c8ebf;fillColor=#dae8fc;gradientColor=#7ea6e0;" vertex="1" parent="1">
          <mxGeometry x="542" y="1511" width="120" height="60" as="geometry" />
        </mxCell>
        <mxCell id="6EzRI4fCPDjEW_pRFf7N-68" value="MemberChangeLog&lt;br&gt;processor" style="shape=process;whiteSpace=wrap;html=1;backgroundOutline=1;rounded=1;fontFamily=Helvetica;fontSize=12;strokeColor=#d6b656;fillColor=#fff2cc;gradientColor=#ffd966;" vertex="1" parent="1">
          <mxGeometry x="177" y="1621" width="120" height="60" as="geometry" />
        </mxCell>
        <mxCell id="6EzRI4fCPDjEW_pRFf7N-69" value="MemberChangeLog&lt;br&gt;processor" style="shape=process;whiteSpace=wrap;html=1;backgroundOutline=1;rounded=1;fontFamily=Helvetica;fontSize=12;strokeColor=#d6b656;fillColor=#fff2cc;gradientColor=#ffd966;" vertex="1" parent="1">
          <mxGeometry x="362" y="1621" width="120" height="60" as="geometry" />
        </mxCell>
        <mxCell id="6EzRI4fCPDjEW_pRFf7N-70" value="MemberChangeLog&lt;br&gt;processor" style="shape=process;whiteSpace=wrap;html=1;backgroundOutline=1;rounded=1;fontFamily=Helvetica;fontSize=12;strokeColor=#d6b656;fillColor=#fff2cc;gradientColor=#ffd966;" vertex="1" parent="1">
          <mxGeometry x="542" y="1621" width="120" height="60" as="geometry" />
        </mxCell>
        <mxCell id="6EzRI4fCPDjEW_pRFf7N-73" style="edgeStyle=orthogonalEdgeStyle;rounded=0;orthogonalLoop=1;jettySize=auto;html=1;exitX=0.5;exitY=1;exitDx=0;exitDy=0;fontFamily=Helvetica;fontSize=12;fontColor=default;" edge="1" parent="1" source="6EzRI4fCPDjEW_pRFf7N-71" target="6EzRI4fCPDjEW_pRFf7N-38">
          <mxGeometry relative="1" as="geometry" />
        </mxCell>
        <mxCell id="6EzRI4fCPDjEW_pRFf7N-74" style="edgeStyle=orthogonalEdgeStyle;rounded=0;orthogonalLoop=1;jettySize=auto;html=1;exitX=0.5;exitY=1;exitDx=0;exitDy=0;fontFamily=Helvetica;fontSize=12;fontColor=default;" edge="1" parent="1" source="6EzRI4fCPDjEW_pRFf7N-71" target="6EzRI4fCPDjEW_pRFf7N-67">
          <mxGeometry relative="1" as="geometry" />
        </mxCell>
        <mxCell id="6EzRI4fCPDjEW_pRFf7N-75" style="edgeStyle=orthogonalEdgeStyle;rounded=0;orthogonalLoop=1;jettySize=auto;html=1;exitX=0.5;exitY=1;exitDx=0;exitDy=0;fontFamily=Helvetica;fontSize=12;fontColor=default;" edge="1" parent="1" source="6EzRI4fCPDjEW_pRFf7N-71" target="6EzRI4fCPDjEW_pRFf7N-66">
          <mxGeometry relative="1" as="geometry" />
        </mxCell>
        <mxCell id="6EzRI4fCPDjEW_pRFf7N-71" value="dispatch" style="rhombus;whiteSpace=wrap;html=1;rounded=1;fontFamily=Helvetica;fontSize=12;strokeColor=#10739e;fillColor=#b1ddf0;" vertex="1" parent="1">
          <mxGeometry x="362" y="1290" width="120" height="70" as="geometry" />
        </mxCell>
        <mxCell id="6EzRI4fCPDjEW_pRFf7N-88" value="" style="shape=curlyBracket;whiteSpace=wrap;html=1;rounded=1;fontFamily=Helvetica;fontSize=12;fontColor=default;strokeColor=default;fillColor=default;" vertex="1" parent="1">
          <mxGeometry x="498.5" y="1260" width="20" height="130" as="geometry" />
        </mxCell>
        <mxCell id="6EzRI4fCPDjEW_pRFf7N-89" value="[MemberBaseInfo_*] -&amp;gt;&amp;nbsp;&amp;nbsp;&lt;span&gt;MemberBaseInfo&amp;nbsp;&lt;/span&gt;&lt;span&gt;processor&lt;/span&gt;" style="text;html=1;align=center;verticalAlign=middle;resizable=0;points=[];autosize=1;strokeColor=none;fillColor=none;fontSize=12;fontFamily=Helvetica;fontColor=default;" vertex="1" parent="1">
          <mxGeometry x="513.5" y="1270" width="290" height="20" as="geometry" />
        </mxCell>
        <mxCell id="6EzRI4fCPDjEW_pRFf7N-91" value="..." style="text;html=1;align=center;verticalAlign=middle;resizable=0;points=[];autosize=1;strokeColor=none;fillColor=none;fontSize=12;fontFamily=Helvetica;fontColor=default;fontStyle=1" vertex="1" parent="1">
          <mxGeometry x="620" y="1327.5" width="30" height="20" as="geometry" />
        </mxCell>
        <mxCell id="6EzRI4fCPDjEW_pRFf7N-93" value="[MemberObjectInfo_*]&amp;nbsp; -&amp;gt;&amp;nbsp;&amp;nbsp;&lt;span&gt;MemberBaseInfo&amp;nbsp;&lt;/span&gt;&lt;span&gt;processor&lt;/span&gt;" style="text;html=1;align=center;verticalAlign=middle;resizable=0;points=[];autosize=1;strokeColor=none;fillColor=none;fontSize=12;fontFamily=Helvetica;fontColor=default;" vertex="1" parent="1">
          <mxGeometry x="513.5" y="1290" width="300" height="20" as="geometry" />
        </mxCell>
        <mxCell id="6EzRI4fCPDjEW_pRFf7N-94" value="&lt;div&gt;&lt;span&gt;[MemberPhoto_*]&amp;nbsp; -&amp;gt;&amp;nbsp;&amp;nbsp;&lt;/span&gt;&lt;span&gt;MemberBaseInfo&amp;nbsp;&lt;/span&gt;&lt;span&gt;processor&lt;/span&gt;&lt;/div&gt;" style="text;html=1;align=left;verticalAlign=middle;resizable=0;points=[];autosize=1;strokeColor=none;fillColor=none;fontSize=12;fontFamily=Helvetica;fontColor=default;" vertex="1" parent="1">
          <mxGeometry x="518.5" y="1310" width="280" height="20" as="geometry" />
        </mxCell>
        <mxCell id="6EzRI4fCPDjEW_pRFf7N-96" value="[{MemberBaseInfo_*, MemberObjectInfo_*, MemberPhoto_*} -&amp;gt; MemberChangeLog processor]" style="text;html=1;align=center;verticalAlign=middle;resizable=0;points=[];autosize=1;strokeColor=none;fillColor=none;fontSize=12;fontFamily=Helvetica;fontColor=default;" vertex="1" parent="1">
          <mxGeometry x="510" y="1360" width="520" height="20" as="geometry" />
        </mxCell>
        <mxCell id="6EzRI4fCPDjEW_pRFf7N-97" value="&lt;b&gt;Processing Chain&lt;/b&gt;" style="text;html=1;align=center;verticalAlign=middle;resizable=0;points=[];autosize=1;strokeColor=none;fillColor=none;fontSize=12;fontFamily=Helvetica;fontColor=default;" vertex="1" parent="1">
          <mxGeometry x="35" y="1584.5" width="120" height="20" as="geometry" />
        </mxCell>
        <mxCell id="6EzRI4fCPDjEW_pRFf7N-98" value="" style="shape=curlyBracket;whiteSpace=wrap;html=1;rounded=1;fontFamily=Helvetica;fontSize=12;fontColor=default;strokeColor=default;strokeWidth=1;fillColor=default;" vertex="1" parent="1">
          <mxGeometry x="690" y="1484.5" width="20" height="120" as="geometry" />
        </mxCell>
        <mxCell id="6EzRI4fCPDjEW_pRFf7N-99" value="INSERT" style="rounded=0;whiteSpace=wrap;html=1;fontFamily=Helvetica;fontSize=12;fontColor=#ffffff;strokeColor=#2D7600;strokeWidth=1;fillColor=#60a917;" vertex="1" parent="1">
          <mxGeometry x="716" y="1495" width="60" height="25" as="geometry" />
        </mxCell>
        <mxCell id="6EzRI4fCPDjEW_pRFf7N-100" value="UPDATE" style="rounded=0;whiteSpace=wrap;html=1;fontFamily=Helvetica;fontSize=12;fontColor=#ffffff;strokeColor=#006EAF;strokeWidth=1;fillColor=#1ba1e2;" vertex="1" parent="1">
          <mxGeometry x="716" y="1532" width="60" height="25" as="geometry" />
        </mxCell>
        <mxCell id="6EzRI4fCPDjEW_pRFf7N-101" value="DELETE" style="rounded=0;whiteSpace=wrap;html=1;fontFamily=Helvetica;fontSize=12;fontColor=#000000;strokeColor=#C73500;strokeWidth=1;fillColor=#fa6800;" vertex="1" parent="1">
          <mxGeometry x="716" y="1571" width="60" height="25" as="geometry" />
        </mxCell>
      </root>
    </mxGraphModel>
  </diagram>
</mxfile>
